<svg width="29" height="29" viewBox="0 0 29 29" fill="none" xmlns="http://www.w3.org/2000/svg">
<g clip-path="url(#clip0_1_19)">
<path d="M6.80258 17.286L5.84911 20.8502L2.36417 20.924C1.32268 18.9898 0.731934 16.7767 0.731934 14.4249C0.731934 12.1508 1.28427 10.0062 2.26332 8.11789H2.26407L5.36664 8.68746L6.72576 11.7755C6.4413 12.6059 6.28625 13.4973 6.28625 14.4249C6.28636 15.4316 6.46848 16.3962 6.80258 17.286Z" fill="#FBBB00"/>
<path d="M27.8847 11.8632C28.042 12.6928 28.124 13.5495 28.124 14.4252C28.124 15.407 28.0209 16.3647 27.8245 17.2886C27.1578 20.4323 25.4156 23.1774 23.0023 25.12L23.0016 25.1192L19.0937 24.9196L18.5406 21.4623C20.142 20.522 21.3935 19.0503 22.0527 17.2886H14.7291V11.8632H22.1595H27.8847Z" fill="#518EF8"/>
<path d="M23.0014 25.1193L23.0021 25.1201C20.655 27.0092 17.6735 28.1395 14.4278 28.1395C9.21208 28.1395 4.67736 25.2203 2.36407 20.9245L6.80249 17.2865C7.95911 20.3774 10.9369 22.5777 14.4278 22.5777C15.9284 22.5777 17.3341 22.1715 18.5404 21.4625L23.0014 25.1193Z" fill="#28B446"/>
<path d="M23.1701 3.86817L18.7332 7.50543C17.4848 6.72404 16.009 6.27265 14.428 6.27265C10.858 6.27265 7.82453 8.5739 6.72586 11.7757L2.26412 8.11806H2.26337C4.54279 3.71747 9.1347 0.710907 14.428 0.710907C17.7511 0.710907 20.7981 1.89622 23.1701 3.86817Z" fill="#F14336"/>
</g>
<defs>
<clipPath id="clip0_1_19">
<rect width="27.392" height="27.4286" fill="white" transform="translate(0.731934 0.710907)"/>
</clipPath>
</defs>
</svg>
