<svg width="29" height="29" viewBox="0 0 29 29" fill="none" xmlns="http://www.w3.org/2000/svg">
<path d="M14.5 28.9999C22.5081 28.9999 29 22.508 29 14.4999C29 6.49184 22.5081 0 14.5 0C6.49187 0 0 6.49184 0 14.4999C0 22.508 6.49187 28.9999 14.5 28.9999Z" fill="#1977F3"/>
<path d="M20.1441 18.6924L20.7864 14.5H16.7654V11.7799C16.7654 10.6339 17.3261 9.51443 19.1287 9.51443H20.9577V5.94602C20.9577 5.94602 19.2979 5.66258 17.7115 5.66258C14.4 5.66258 12.2345 7.66905 12.2345 11.3048V14.5H8.55188V18.6924H12.2345V28.8247C12.9726 28.9409 13.7291 29 14.4999 29C15.2707 29 16.0272 28.9388 16.7654 28.8247V18.6924H20.1441Z" fill="white"/>
</svg>
